# Blender 4.4.1
# www.blender.org
o pCube1.002
v -43.107670 1.220396 40.998905
v -43.231327 2.254322 41.432774
v -44.596516 9.024035 25.163086
v -44.559654 9.065676 25.163301
v -44.576653 9.043612 25.115168
v -43.477097 9.458164 24.071613
v -43.530621 9.457693 24.074013
v -43.503765 9.482677 24.111574
v -44.616112 8.063948 24.762880
v -44.595650 8.083414 24.715197
v -44.580696 8.033100 24.733282
v -43.500977 8.494715 23.670788
v -43.447399 8.494430 23.670200
v -43.472904 8.449628 23.680149
v -44.289494 2.230452 41.442768
v -44.250668 2.265223 41.456547
v -42.011303 2.241274 41.404324
v -41.973911 2.205689 41.388763
v -42.316875 9.041348 25.111820
v -42.280926 8.999207 25.109310
v -42.303596 9.019057 25.062819
v -42.322643 8.059142 24.662106
v -42.300529 8.039197 24.708853
v -42.337936 8.009160 24.680870
v -44.309135 1.268431 41.041615
v -44.271748 1.232845 41.026054
v -42.032379 1.208897 40.973831
v -41.993553 1.243668 40.987610
vn -0.0018 -0.9367 -0.3502
vn 0.9970 -0.0564 0.0530
vn -0.3336 0.6631 0.6700
vn 0.3567 -0.9342 0.0085
vn 0.6911 0.1738 0.7016
vn -0.9945 -0.0097 0.1048
vn -0.8512 0.3983 0.3417
vn -0.7293 0.2339 -0.6429
vn -0.9997 -0.0239 0.0038
vn 0.2998 0.0606 0.9521
vn -0.0109 0.9242 0.3818
vn -0.5207 0.7311 -0.4409
vn 0.0178 0.9225 0.3857
vn -0.7128 0.2928 -0.6373
vn 0.6932 0.3060 -0.6526
vn 0.6612 0.3367 -0.6704
vn -0.6981 0.2278 -0.6788
vn -0.4333 -0.0922 0.8965
vn -0.0149 -0.9233 -0.3839
vn -0.8088 -0.5325 -0.2497
vn 0.6983 0.2369 -0.6755
vn 0.0095 -0.9210 -0.3896
vn 0.9995 0.0274 -0.0121
vn 0.5802 0.7615 -0.2891
vn 0.9984 -0.0431 -0.0355
vn -0.2692 -0.7226 0.6367
vn 0.5125 -0.3776 -0.7712
vn 0.9958 -0.0148 0.0908
vt 0.170866 0.469785
vt 0.169716 0.503388
vt 0.137114 0.502238
vt 0.170866 0.434653
vt 0.137114 0.465417
vt 0.138264 0.433503
vt 0.587893 0.955108
vt 0.556506 0.956741
vt 0.556506 0.955103
vt 0.589076 0.433116
vt 0.589076 0.955770
vt 0.904027 0.533842
vt 0.936950 0.566318
vt 0.936174 0.567088
vt 0.972627 0.533821
vt 0.937790 0.567132
vt 0.206234 0.434673
vt 0.204618 0.466122
vt 0.204619 0.434612
vt 0.773630 0.965179
vt 0.772565 0.432892
vt 0.773715 0.432892
vt 0.486724 0.966721
vt 0.452252 0.999201
vt 0.486269 0.965626
vt 0.418124 0.966724
vt 0.418583 0.965629
vt 0.656581 0.433119
vt 0.657763 0.954636
vt 0.656581 0.955284
vt 0.657763 0.956273
vt 0.689151 0.954641
vt 0.689151 0.956282
vt 0.690333 0.433121
vt 0.690333 0.955299
vt 0.904499 0.532749
vt 0.935316 0.000000
vt 0.587923 0.995593
vt 0.587893 0.956751
vt 0.451086 0.432892
vt 0.486218 0.432892
vt 0.689183 0.432893
vt 0.587926 0.432893
vt 0.689181 0.995491
vt 0.657706 0.995822
vt 0.418633 0.432892
vt 0.972185 0.532722
vt 0.205440 0.433503
vt 0.555324 0.955754
vt 0.206234 0.466183
vt 0.205411 0.467292
vt 0.170866 0.502238
vt 0.138264 0.503388
vt 0.169716 0.433503
vt 0.137114 0.434654
vt 0.764515 0.965182
vt 0.764515 0.432892
vt 0.765665 0.432892
vt 0.555323 0.433114
vt 0.453106 1.000000
vt 0.451490 0.999985
vt 0.769115 0.432892
vt 0.770265 0.432892
vt 0.770265 0.965175
vt 0.771415 0.965179
vt 0.771415 0.432892
vt 0.772565 0.432892
vt 0.904552 -0.000000
vt 0.556448 0.995900
vt 0.657731 0.432892
vt 0.556474 0.432892
vt 0.972136 -0.000000
s 1
f 1/1/1 28/2/2 17/3/3
f 26/4/4 2/5/5 15/6/6
f 3/7/7 10/8/8 9/9/9
f 3/7/7 16/10/10 4/11/11
f 5/12/12 8/13/13 7/14/14
f 8/13/13 21/15/15 6/16/16
f 6/17/16 12/18/17 7/19/14
f 9/20/9 26/21/4 25/22/18
f 10/23/8 14/24/19 11/25/20
f 14/24/19 22/26/21 24/27/22
f 17/28/3 20/29/23 19/30/24
f 21/31/15 23/32/25 22/33/21
f 23/32/25 27/34/26 24/35/22
f 4/36/11 2/37/5 8/13/13
f 7/38/14 10/8/8 5/39/12
f 11/25/20 1/40/1 26/41/4
f 20/29/23 28/42/2 23/32/25
f 9/9/9 15/43/6 3/7/7
f 21/31/15 13/44/27 6/45/16
f 1/40/1 24/27/22 27/46/26
f 2/37/5 19/47/24 8/13/13
f 3/7/7 4/11/11 5/39/12
f 6/17/16 7/19/14 8/48/13
f 9/9/9 10/8/8 11/49/20
f 12/18/17 13/50/27 14/51/19
f 19/30/24 20/29/23 21/31/15
f 22/33/21 23/32/25 24/35/22
f 17/3/3 2/5/5 1/1/1
f 1/1/1 27/52/26 28/2/2
f 28/2/2 18/53/28 17/3/3
f 15/6/6 25/54/18 26/4/4
f 26/4/4 1/1/1 2/5/5
f 2/5/5 16/55/10 15/6/6
f 3/7/7 5/39/12 10/8/8
f 3/56/7 15/57/6 16/58/10
f 5/12/12 4/36/11 8/13/13
f 8/13/13 19/47/24 21/15/15
f 6/17/16 13/50/27 12/18/17
f 9/9/9 11/49/20 26/59/4
f 10/23/8 12/60/17 14/24/19
f 14/24/19 13/61/27 22/26/21
f 17/62/3 18/63/28 20/64/23
f 21/31/15 20/29/23 23/32/25
f 23/65/25 28/66/2 27/67/26
f 4/36/11 16/68/10 2/37/5
f 7/38/14 12/69/17 10/8/8
f 11/25/20 14/24/19 1/40/1
f 20/29/23 18/70/28 28/42/2
f 9/9/9 25/71/18 15/43/6
f 21/31/15 22/33/21 13/44/27
f 1/40/1 14/24/19 24/27/22
f 2/37/5 17/72/3 19/47/24
o pCube2.002
v -36.882420 6.308239 33.532337
v -36.909939 6.334425 33.543789
v -36.909973 6.297735 33.558876
v -36.918579 7.490455 30.363434
v -36.946102 7.516639 30.374882
v -48.466106 6.458005 33.813293
v -48.475609 6.421414 33.828606
v -51.262634 7.651947 30.679848
v -51.261402 7.636944 30.715769
v -51.239681 7.669747 30.707613
v -48.489918 5.708214 33.531197
v -48.481457 5.693029 33.494297
v -51.275536 6.922739 30.418028
v -51.276611 6.937726 30.382137
v -51.254658 6.904696 30.388779
v -36.924286 5.584534 33.261467
v -36.925293 5.569450 33.224789
v -36.896729 5.595038 33.234932
v -36.961460 6.751661 30.055885
v -36.932892 6.777255 30.066029
v -36.956646 8.941923 27.183857
v -36.985176 8.953021 27.158623
v -36.984169 8.968107 27.195305
v -48.562927 9.092360 27.464302
v -48.550102 9.075830 27.427975
v -48.588451 9.070698 27.441299
v -48.560783 8.358623 27.143467
v -48.522453 8.363730 27.130241
v -48.533295 8.327061 27.143875
v -36.999527 8.203129 26.876308
v -36.999489 8.239821 26.861221
v -36.970959 8.228723 26.886452
vn 0.7604 0.5968 0.2562
vn 0.0196 -0.4176 0.9084
vn 0.9989 -0.0453 -0.0132
vn 0.0291 0.9257 0.3772
vn 0.0143 0.9240 0.3821
vn 0.0620 0.3394 0.9386
vn -0.0424 0.9263 0.3743
vn -0.2235 -0.3536 0.9083
vn 0.9996 0.0253 -0.0135
vn 0.0199 0.9183 0.3953
vn -0.7071 -0.2260 0.6700
vn -0.7685 0.4883 0.4135
vn -0.7324 0.2789 -0.6211
vn -0.7182 0.3434 -0.6052
vn -0.7195 0.2062 -0.6632
vn -0.6967 -0.3124 0.6458
vn -0.0796 -0.9299 -0.3590
vn -0.2010 -0.3922 0.8976
vn -0.0383 -0.9594 -0.2793
vn -0.7043 0.2454 -0.6662
vn 0.0317 -0.8979 -0.4391
vn 0.4910 -0.7676 0.4120
vn 0.9971 -0.0586 -0.0479
vn -0.0128 -0.9148 -0.4038
vn 0.9981 -0.0461 -0.0416
vn -0.0141 0.3484 -0.9372
vn -0.0125 0.4203 -0.9073
vn -0.0172 0.4190 -0.9078
vn -0.5844 0.7675 -0.2634
vn -0.3219 -0.2463 -0.9142
vn 0.3239 -0.6397 -0.6970
vn 0.8781 0.4352 -0.1991
vt 0.053709 0.434355
vt 0.077028 0.433551
vt 0.077027 0.434403
vt 0.626681 0.431916
vt 0.524702 0.432045
vt 0.626681 0.431069
vt 0.000846 0.782555
vt -0.000000 0.433789
vt 0.000846 0.433503
vt 0.056552 0.536330
vt 0.053709 0.641730
vt 0.052863 0.641722
vt 0.625932 0.082304
vt 0.524348 0.000014
vt 0.626775 0.082017
vt 0.523755 0.000666
vt 0.418124 0.082700
vt 0.523173 0.000000
vt 0.133516 0.536752
vt 0.110170 0.537975
vt 0.110167 0.536801
vt 0.000849 0.082515
vt -0.000000 0.431280
vt 0.000000 0.082229
vt 0.102248 0.000012
vt 0.102844 0.000668
vt 0.208655 0.083730
vt 0.208265 0.084569
vt 0.077873 0.434399
vt 0.080716 0.536385
vt 0.102827 0.432883
vt 0.208218 0.432657
vt 0.208216 0.433503
vt 0.077025 0.642618
vt 0.053708 0.642570
vt 0.715342 0.778032
vt 0.714475 0.434108
vt 0.715342 0.433559
vt 0.691195 0.434184
vt 0.714461 0.432892
vt 0.691209 0.435400
vt 0.690333 0.778079
vt 0.690333 0.434947
vt 0.113796 0.433555
vt 0.137114 0.433503
vt 0.102830 0.432037
vt 0.000849 0.431280
vt 0.057399 0.536337
vt 0.714503 0.778176
vt 0.024164 0.433511
vt 0.024164 0.782562
vt 0.133518 0.537927
vt 0.113846 0.642176
vt 0.077027 0.641777
vt 0.418530 0.083446
vt 0.052863 0.434348
vt 0.053711 0.433504
vt 0.134348 0.537339
vt 0.109338 0.537388
vt 0.774559 0.782768
vt 0.773715 0.781920
vt 0.774564 0.781922
vt 0.209062 0.432657
vt 0.524701 0.432892
vt -0.000000 0.782555
vt 0.103422 0.000000
vt 0.081562 0.536381
vt 0.774564 0.432892
vt 0.209062 0.084893
vt 0.691187 0.778220
vt 0.137114 0.642137
vt 0.419315 0.432892
s 1
f 29/73/29 44/74/30 46/75/31
f 29/76/29 33/77/32 30/78/33
f 31/79/34 34/80/35 35/81/36
f 33/82/32 49/83/37 51/84/38
f 34/85/35 37/86/39 35/87/36
f 38/88/40 54/89/41 36/90/42
f 37/91/39 42/92/43 41/93/44
f 40/94/45 44/95/30 39/96/46
f 40/94/45 41/97/44 43/98/47
f 43/98/47 55/99/48 57/100/49
f 45/101/50 48/102/51 46/75/31
f 48/103/51 58/104/52 60/105/53
f 49/83/37 59/106/54 50/107/55
f 51/108/38 53/109/56 52/110/57
f 53/109/56 55/111/48 54/112/41
f 56/113/58 58/114/52 57/115/49
f 33/77/32 34/85/35 30/78/33
f 37/91/39 39/116/46 35/117/36
f 40/94/45 47/118/59 45/119/50
f 46/75/31 32/120/60 29/73/29
f 50/121/55 56/113/58 53/109/56
f 31/79/34 39/122/46 44/123/30
f 36/124/42 55/125/48 42/92/43
f 47/118/59 57/100/49 58/104/52
f 32/120/60 60/126/53 49/83/37
f 33/77/32 52/127/57 38/88/40
f 29/73/29 30/128/33 31/129/34
f 36/124/42 37/91/39 38/130/40
f 41/93/44 42/92/43 43/131/47
f 44/74/30 45/101/50 46/75/31
f 49/132/37 50/133/55 51/134/38
f 52/110/57 53/109/56 54/112/41
f 55/111/48 56/113/58 57/115/49
f 58/104/52 59/135/54 60/105/53
f 29/73/29 31/129/34 44/74/30
f 29/76/29 32/136/60 33/77/32
f 31/79/34 30/137/33 34/80/35
f 33/82/32 32/120/60 49/83/37
f 34/85/35 38/88/40 37/86/39
f 38/88/40 52/127/57 54/89/41
f 37/91/39 36/124/42 42/92/43
f 40/94/45 45/119/50 44/95/30
f 40/94/45 39/96/46 41/97/44
f 43/98/47 42/138/43 55/99/48
f 45/101/50 47/139/59 48/102/51
f 48/103/51 47/118/59 58/104/52
f 49/83/37 60/126/53 59/106/54
f 51/134/38 50/133/55 53/140/56
f 53/109/56 56/113/58 55/111/48
f 56/141/58 59/135/54 58/104/52
f 33/77/32 38/88/40 34/85/35
f 37/91/39 41/93/44 39/116/46
f 40/94/45 43/98/47 47/118/59
f 46/75/31 48/102/51 32/120/60
f 50/121/55 59/142/54 56/113/58
f 31/79/34 35/81/36 39/122/46
f 36/124/42 54/143/41 55/125/48
f 47/118/59 43/98/47 57/100/49
f 32/120/60 48/102/51 60/126/53
f 33/77/32 51/144/38 52/127/57
o pCube2.003
v 39.411297 6.308240 33.532337
v 39.438816 6.334426 33.543789
v 39.438850 6.297735 33.558876
v 39.447456 7.490455 30.363434
v 39.474979 7.516639 30.374882
v 50.994984 6.458006 33.813293
v 51.004486 6.421415 33.828606
v 53.791512 7.651947 30.679848
v 53.790279 7.636944 30.715769
v 53.768559 7.669747 30.707613
v 51.018795 5.708215 33.531197
v 51.010334 5.693029 33.494297
v 53.804413 6.922739 30.418028
v 53.805489 6.937726 30.382137
v 53.783535 6.904696 30.388779
v 39.453163 5.584535 33.261467
v 39.454170 5.569450 33.224789
v 39.425606 5.595038 33.234932
v 39.490337 6.751661 30.055885
v 39.461769 6.777255 30.066029
v 39.485523 8.941923 27.183857
v 39.514053 8.953021 27.158623
v 39.513046 8.968107 27.195305
v 51.091805 9.092360 27.464302
v 51.078979 9.075830 27.427975
v 51.117329 9.070698 27.441299
v 51.089661 8.358623 27.143467
v 51.051331 8.363730 27.130241
v 51.062172 8.327061 27.143875
v 39.528404 8.203129 26.876308
v 39.528366 8.239821 26.861221
v 39.499836 8.228723 26.886452
vn -0.7604 0.5968 0.2562
vn -0.0196 -0.4176 0.9084
vn -0.9989 -0.0453 -0.0132
vn -0.0291 0.9257 0.3772
vn -0.0143 0.9240 0.3822
vn -0.0621 0.3394 0.9386
vn 0.0424 0.9263 0.3743
vn 0.2235 -0.3536 0.9083
vn -0.9996 0.0253 -0.0135
vn -0.0199 0.9183 0.3953
vn 0.7071 -0.2259 0.6700
vn 0.7685 0.4883 0.4135
vn 0.7324 0.2790 -0.6211
vn 0.7181 0.3434 -0.6053
vn 0.7195 0.2061 -0.6632
vn 0.6967 -0.3124 0.6458
vn 0.0796 -0.9299 -0.3590
vn 0.2010 -0.3922 0.8976
vn 0.0383 -0.9594 -0.2793
vn 0.7042 0.2454 -0.6662
vn -0.0317 -0.8979 -0.4391
vn -0.4910 -0.7676 0.4120
vn -0.9971 -0.0587 -0.0479
vn 0.0128 -0.9148 -0.4038
vn -0.9981 -0.0461 -0.0416
vn 0.0141 0.3484 -0.9372
vn 0.0125 0.4203 -0.9073
vn 0.0172 0.4190 -0.9078
vn 0.5844 0.7675 -0.2634
vn 0.3219 -0.2463 -0.9142
vn -0.3239 -0.6398 -0.6970
vn -0.8781 0.4352 -0.1991
vt 0.025010 0.434356
vt 0.048329 0.433551
vt 0.048327 0.434403
vt 0.835332 0.431915
vt 0.733353 0.432045
vt 0.835332 0.431069
vt 0.741197 0.781943
vt 0.740351 0.433177
vt 0.741197 0.432892
vt 0.027853 0.536330
vt 0.025010 0.641730
vt 0.024164 0.641722
vt 0.834583 0.082304
vt 0.732999 0.000014
vt 0.835427 0.082017
vt 0.732406 0.000666
vt 0.626775 0.082700
vt 0.731824 0.000000
vt 0.105740 0.536752
vt 0.082394 0.537975
vt 0.082391 0.536801
vt 0.209911 0.082515
vt 0.209062 0.431280
vt 0.209062 0.082229
vt 0.311311 0.000012
vt 0.311906 0.000668
vt 0.417717 0.083730
vt 0.417327 0.084569
vt 0.049174 0.434399
vt 0.052017 0.536385
vt 0.311890 0.432883
vt 0.417280 0.432657
vt 0.417278 0.433503
vt 0.048325 0.642618
vt 0.025008 0.642570
vt 0.740351 0.778032
vt 0.739484 0.434108
vt 0.740351 0.433559
vt 0.716204 0.434184
vt 0.739470 0.432892
vt 0.716218 0.435400
vt 0.715342 0.778079
vt 0.715342 0.434946
vt 0.086021 0.433555
vt 0.109338 0.433503
vt 0.311892 0.432037
vt 0.209911 0.431280
vt 0.028699 0.536337
vt 0.739512 0.778176
vt 0.764515 0.432899
vt 0.764515 0.781950
vt 0.105743 0.537927
vt 0.086070 0.642176
vt 0.048327 0.641777
vt 0.627181 0.083446
vt 0.024164 0.434348
vt 0.025012 0.433504
vt 0.106572 0.537339
vt 0.081562 0.537388
vt 0.775408 0.782768
vt 0.774564 0.781920
vt 0.775412 0.781922
vt 0.418124 0.432657
vt 0.733352 0.432892
vt 0.740351 0.781943
vt 0.312485 -0.000000
vt 0.052863 0.536381
vt 0.775412 0.432892
vt 0.418124 0.084893
vt 0.716196 0.778220
vt 0.109338 0.642137
vt 0.627966 0.432892
s 1
f 61/145/61 78/147/63 76/146/62
f 61/148/61 62/150/65 65/149/64
f 63/151/66 67/153/68 66/152/67
f 65/154/64 83/156/70 81/155/69
f 66/157/67 67/159/68 69/158/71
f 70/160/72 68/162/74 86/161/73
f 69/163/71 73/165/76 74/164/75
f 72/166/77 71/168/78 76/167/62
f 72/166/77 75/170/79 73/169/76
f 75/170/79 89/172/81 87/171/80
f 77/173/82 78/147/63 80/174/83
f 80/175/83 92/177/85 90/176/84
f 81/155/69 82/179/87 91/178/86
f 83/180/70 84/182/89 85/181/88
f 85/181/88 86/184/73 87/183/80
f 88/185/90 89/187/81 90/186/84
f 65/149/64 62/150/65 66/157/67
f 69/163/71 67/189/68 71/188/78
f 72/166/77 77/191/82 79/190/91
f 78/147/63 61/145/61 64/192/92
f 82/193/87 85/181/88 88/185/90
f 63/151/66 76/195/62 71/194/78
f 68/196/74 74/164/75 87/197/80
f 79/190/91 90/176/84 89/172/81
f 64/192/92 81/155/69 92/198/85
f 65/149/64 70/160/72 84/199/89
f 61/145/61 63/201/66 62/200/65
f 68/196/74 70/202/72 69/163/71
f 73/165/76 75/203/79 74/164/75
f 76/146/62 78/147/63 77/173/82
f 81/204/69 83/206/70 82/205/87
f 84/182/89 86/184/73 85/181/88
f 87/183/80 89/187/81 88/185/90
f 90/176/84 92/177/85 91/207/86
f 61/145/61 76/146/62 63/201/66
f 61/148/61 65/149/64 64/208/92
f 63/151/66 66/152/67 62/209/65
f 65/154/64 81/155/69 64/192/92
f 66/157/67 69/158/71 70/160/72
f 70/160/72 86/161/73 84/199/89
f 69/163/71 74/164/75 68/196/74
f 72/166/77 76/167/62 77/191/82
f 72/166/77 73/169/76 71/168/78
f 75/170/79 87/171/80 74/210/75
f 77/173/82 80/174/83 79/211/91
f 80/175/83 90/176/84 79/190/91
f 81/155/69 91/178/86 92/198/85
f 83/206/70 85/212/88 82/205/87
f 85/181/88 87/183/80 88/185/90
f 88/213/90 90/176/84 91/207/86
f 65/149/64 66/157/67 70/160/72
f 69/163/71 71/188/78 73/165/76
f 72/166/77 79/190/91 75/170/79
f 78/147/63 64/192/92 80/174/83
f 82/193/87 88/185/90 91/214/86
f 63/151/66 71/194/78 67/153/68
f 68/196/74 87/197/80 86/215/73
f 79/190/91 89/172/81 75/170/79
f 64/192/92 92/198/85 80/174/83
f 65/149/64 84/199/89 83/216/70
o pCube1.003
v 45.636547 1.220397 40.998905
v 45.760204 2.254322 41.432774
v 47.125393 9.024035 25.163086
v 47.088531 9.065676 25.163301
v 47.105530 9.043612 25.115168
v 46.005974 9.458164 24.071613
v 46.059498 9.457693 24.074013
v 46.032642 9.482677 24.111574
v 47.144989 8.063948 24.762880
v 47.124527 8.083414 24.715197
v 47.109573 8.033100 24.733282
v 46.029854 8.494715 23.670788
v 45.976276 8.494430 23.670200
v 46.001781 8.449628 23.680149
v 46.818371 2.230452 41.442768
v 46.779545 2.265223 41.456547
v 44.540180 2.241274 41.404324
v 44.502789 2.205689 41.388763
v 44.845753 9.041348 25.111820
v 44.809803 8.999207 25.109310
v 44.832474 9.019057 25.062819
v 44.851521 8.059142 24.662106
v 44.829407 8.039197 24.708853
v 44.866814 8.009160 24.680870
v 46.838013 1.268431 41.041615
v 46.800625 1.232845 41.026054
v 44.561256 1.208897 40.973831
v 44.522430 1.243668 40.987610
vn 0.0018 -0.9367 -0.3502
vn -0.9970 -0.0564 0.0530
vn 0.3337 0.6631 0.6700
vn -0.3567 -0.9342 0.0084
vn -0.6911 0.1738 0.7016
vn 0.9945 -0.0097 0.1047
vn 0.8512 0.3983 0.3418
vn 0.7293 0.2338 -0.6429
vn 0.9997 -0.0239 0.0038
vn -0.2998 0.0606 0.9521
vn 0.0109 0.9242 0.3818
vn 0.5207 0.7311 -0.4409
vn -0.0178 0.9225 0.3857
vn 0.7128 0.2928 -0.6373
vn -0.6932 0.3060 -0.6526
vn -0.6612 0.3367 -0.6704
vn 0.6981 0.2278 -0.6788
vn 0.4333 -0.0921 0.8965
vn 0.0149 -0.9233 -0.3839
vn 0.8088 -0.5325 -0.2497
vn -0.6983 0.2369 -0.6755
vn -0.0095 -0.9210 -0.3895
vn -0.9996 0.0274 -0.0121
vn -0.5802 0.7615 -0.2891
vn -0.9984 -0.0431 -0.0355
vn 0.2692 -0.7226 0.6367
vn -0.5125 -0.3776 -0.7712
vn -0.9958 -0.0148 0.0908
vt 0.204618 0.469785
vt 0.203468 0.503388
vt 0.170866 0.502238
vt 0.204618 0.434654
vt 0.170866 0.465417
vt 0.172016 0.433503
vt 0.621646 0.955108
vt 0.590258 0.956741
vt 0.590258 0.955103
vt 0.622828 0.433116
vt 0.622828 0.955770
vt 0.835427 0.533842
vt 0.868349 0.566318
vt 0.867574 0.567088
vt 0.904027 0.533821
vt 0.869190 0.567132
vt 0.207849 0.434673
vt 0.206234 0.466122
vt 0.206234 0.434612
vt 0.771384 0.965179
vt 0.770265 0.432892
vt 0.771415 0.432892
vt 0.555323 0.966721
vt 0.520851 0.999201
vt 0.554869 0.965626
vt 0.486724 0.966724
vt 0.487182 0.965629
vt 0.622828 0.433119
vt 0.624010 0.954636
vt 0.622828 0.955284
vt 0.624010 0.956272
vt 0.655399 0.954641
vt 0.655398 0.956282
vt 0.656581 0.433120
vt 0.656581 0.955299
vt 0.835898 0.532749
vt 0.866715 0.000000
vt 0.621675 0.995593
vt 0.621646 0.956751
vt 0.519685 0.432892
vt 0.554817 0.432892
vt 0.655431 0.432893
vt 0.621678 0.432893
vt 0.655428 0.995491
vt 0.623953 0.995822
vt 0.487233 0.432892
vt 0.903585 0.532722
vt 0.207056 0.433503
vt 0.589076 0.955754
vt 0.207849 0.466183
vt 0.207027 0.467292
vt 0.204618 0.502238
vt 0.172016 0.503388
vt 0.203468 0.433503
vt 0.170866 0.434654
vt 0.767965 0.965184
vt 0.766815 0.432894
vt 0.767965 0.432892
vt 0.589076 0.433114
vt 0.521706 1.000000
vt 0.520090 0.999985
vt 0.765665 0.432892
vt 0.766815 0.432892
vt 0.766815 0.965175
vt 0.767965 0.965179
vt 0.767965 0.432892
vt 0.769115 0.432892
vt 0.835951 0.000000
vt 0.590200 0.995900
vt 0.623979 0.432892
vt 0.590226 0.432891
vt 0.903535 0.000000
s 1
f 93/217/93 109/219/95 120/218/94
f 118/220/96 107/222/98 94/221/97
f 95/223/99 101/225/101 102/224/100
f 95/223/99 96/227/103 108/226/102
f 97/228/104 99/230/106 100/229/105
f 100/229/105 98/232/108 113/231/107
f 98/233/108 99/235/106 104/234/109
f 101/236/101 117/238/110 118/237/96
f 102/239/100 103/241/112 106/240/111
f 106/240/111 116/243/114 114/242/113
f 109/244/95 111/246/116 112/245/115
f 113/247/107 114/249/113 115/248/117
f 115/248/117 116/251/114 119/250/118
f 96/252/103 100/229/105 94/253/97
f 99/254/106 97/255/104 102/224/100
f 103/241/112 118/257/96 93/256/93
f 112/245/115 115/248/117 120/258/94
f 101/225/101 95/223/99 107/259/98
f 113/247/107 98/261/108 105/260/119
f 93/256/93 119/262/118 116/243/114
f 94/253/97 100/229/105 111/263/116
f 95/223/99 97/255/104 96/227/103
f 98/233/108 100/264/105 99/235/106
f 101/225/101 103/265/112 102/224/100
f 104/234/109 106/267/111 105/266/119
f 111/246/116 113/247/107 112/245/115
f 114/249/113 116/251/114 115/248/117
f 109/219/95 93/217/93 94/221/97
f 93/217/93 120/218/94 119/268/118
f 120/218/94 109/219/95 110/269/120
f 107/222/98 118/220/96 117/270/110
f 118/220/96 94/221/97 93/217/93
f 94/221/97 107/222/98 108/271/102
f 95/223/99 102/224/100 97/255/104
f 95/272/99 108/274/102 107/273/98
f 97/228/104 100/229/105 96/252/103
f 100/229/105 113/231/107 111/263/116
f 98/233/108 104/234/109 105/266/119
f 101/225/101 118/275/96 103/265/112
f 102/239/100 106/240/111 104/276/109
f 106/240/111 114/242/113 105/277/119
f 109/278/95 112/280/115 110/279/120
f 113/247/107 115/248/117 112/245/115
f 115/281/117 119/283/118 120/282/94
f 96/252/103 94/253/97 108/284/102
f 99/254/106 102/224/100 104/285/109
f 103/241/112 93/256/93 106/240/111
f 112/245/115 120/258/94 110/286/120
f 101/225/101 107/259/98 117/287/110
f 113/247/107 105/260/119 114/249/113
f 93/256/93 116/243/114 106/240/111
f 94/253/97 111/263/116 109/288/95
