# Blender 4.4.1
# www.blender.org
o Plane.001
v -13.610243 1.538485 50.000000
v 24.433798 1.538485 50.000000
v -13.610243 1.046218 -22.727272
v -13.610243 1.395798 -13.636362
v -13.610243 1.141644 -4.545453
v -13.610243 2.026515 4.545455
v -13.610243 1.710087 13.636364
v -13.610243 1.788372 22.727274
v -13.610243 1.523551 31.818182
v -13.610243 1.413223 40.909092
v -10.151693 0.966119 50.000000
v -6.693144 2.207004 50.000000
v -3.234595 1.373475 50.000000
v 0.223955 1.623236 50.000000
v 3.682504 1.332381 50.000000
v 7.141053 1.729205 50.000000
v 10.599602 1.507305 50.000000
v 14.058151 1.271498 50.000000
v 17.516701 1.809341 50.000000
v 20.975248 1.669135 50.000000
v 24.433798 1.287782 40.909092
v 14.058151 1.231785 -50.000000
v 10.599602 1.712600 -50.000000
v 7.141052 2.013995 -50.000000
v 3.682503 1.098183 -50.000000
v 0.223954 1.683297 -50.000000
v -3.234595 1.524986 -50.000000
v -6.693144 1.424493 -50.000000
v -10.151693 1.782055 -50.000000
v -10.151693 1.741232 40.909092
v -10.151693 1.298368 31.818182
v -10.151693 1.552602 22.727272
v -10.151693 1.538199 13.636362
v -10.151693 1.513821 4.545453
v -10.151693 1.699266 -4.545455
v -10.151693 1.779197 -13.636364
v -10.151693 1.920664 -22.727274
v -10.151693 1.266240 -31.818182
v -10.151693 1.321220 -40.909092
v -6.693144 1.352122 40.909092
v -6.693144 0.570436 31.818182
v -6.693144 1.066500 22.727272
v -6.693144 1.741109 13.636362
v -6.693144 1.692782 4.545453
v -6.693144 1.067435 -4.545455
v -6.693144 1.343409 -13.636364
v -6.693144 1.311418 -22.727274
v -6.693144 1.338489 -31.818182
v -6.693144 0.855787 -40.909092
v -3.234595 1.480137 40.909092
v -3.234595 1.160555 31.818182
v -3.234595 1.565585 22.727272
v -3.234595 1.414739 13.636362
v -3.234595 1.773988 4.545453
v -3.234595 2.067020 -4.545455
v -3.234595 1.291233 -13.636364
v -3.234595 1.409512 -22.727274
v -3.234595 2.016472 -31.818182
v -3.234595 1.764755 -40.909092
v 0.223955 1.307777 40.909092
v 0.223955 1.626776 31.818182
v 0.223955 2.294348 22.727272
v 0.223955 1.263418 13.636362
v 0.223955 1.259634 4.545453
v 0.223955 1.926950 -4.545455
v 0.223955 1.630061 -13.636364
v 0.223955 1.444921 -22.727274
v 0.223955 1.639056 -31.818182
v 0.223955 1.291856 -40.909092
v 3.682504 1.243297 40.909092
v 3.682504 1.347505 31.818182
v 3.682504 1.804488 22.727272
v 3.682504 1.808564 13.636362
v 3.682503 1.412070 4.545453
v 3.682503 1.381030 -4.545455
v 3.682503 2.012005 -13.636364
v 3.682503 1.338886 -22.727274
v 3.682503 1.124923 -31.818182
v 3.682503 2.027723 -40.909092
v 7.141053 2.015982 40.909092
v 7.141053 1.378451 31.818182
v 7.141053 0.705182 22.727272
v 7.141053 1.493674 13.636362
v 7.141052 1.896602 4.545453
v 7.141052 1.261946 -4.545455
v 7.141052 1.207246 -13.636364
v 7.141052 1.678383 -22.727274
v 7.141052 0.393674 -31.818182
v 7.141052 1.768700 -40.909092
v 10.599602 2.279201 40.909092
v 10.599602 1.711746 31.818182
v 10.599602 1.480525 22.727272
v 10.599602 1.533023 13.636362
v 10.599602 1.184796 -4.545455
v 10.599602 1.560932 -13.636364
v 10.599602 1.681810 -22.727274
v 10.599602 0.981059 -31.818182
v 10.599602 1.841136 -40.909092
v 14.058151 1.958117 40.909092
v 14.058151 1.420248 31.818182
v 14.058151 1.693934 22.727272
v 14.058151 1.101118 13.636362
v 14.058151 1.277558 -13.636364
v 14.058151 1.401885 -22.727274
v 14.058151 2.007083 -31.818182
v 14.058151 1.757738 -40.909092
v 17.516701 1.744915 40.909092
v 17.516701 1.178485 31.818182
v 17.516701 1.701888 22.727272
v 17.516701 2.338054 13.636362
v 14.102650 1.538485 -32.890629
v 20.975248 1.795195 40.909092
v 20.975248 1.364950 31.818182
vn 0.0347 0.9988 0.0355
vn 0.0919 0.9957 -0.0068
vn -0.2450 0.9688 -0.0373
vn -0.1572 0.9876 0.0034
vn -0.1591 0.9867 -0.0324
vn 0.0715 0.9974 -0.0015
vn 0.0787 0.9969 0.0055
vn 0.0680 0.9976 0.0102
vn 0.0657 0.9976 0.0203
vn -0.0545 0.9984 -0.0160
vn 0.0217 0.9989 0.0407
vn -0.0496 0.9944 -0.0935
vn 0.0441 0.9987 -0.0258
vn 0.0059 0.9994 -0.0347
vn -0.0315 0.9994 -0.0160
vn -0.0521 0.9984 0.0213
vn 0.0377 0.9969 0.0688
vn -0.0420 0.9963 0.0752
vn -0.0167 0.9997 0.0187
vn 0.0391 0.9991 0.0139
vn 0.1451 0.9890 -0.0273
vn 0.1375 0.9889 -0.0572
vn 0.0571 0.9983 -0.0147
vn -0.0025 1.0000 -0.0048
vn -0.1338 0.9890 -0.0627
vn 0.1054 0.9941 0.0252
vn -0.0374 0.9990 -0.0263
vn -0.0135 0.9992 0.0372
vn 0.1027 0.9934 0.0504
vn 0.0403 0.9992 0.0052
vn 0.0960 0.9954 -0.0041
vn 0.0761 0.9969 0.0218
vn -0.0036 1.0000 -0.0025
vn 0.0352 0.9993 0.0135
vn 0.0191 0.9998 -0.0062
vn 0.0137 0.9999 0.0098
vn 0.0556 0.9982 -0.0217
vn 0.0277 0.9995 -0.0140
vn 0.0873 0.9960 0.0165
vn 0.0092 0.9990 -0.0428
vn 0.0185 0.9997 -0.0146
vn 0.0037 0.9982 0.0594
vn -0.0019 0.9998 0.0190
vn -0.0424 0.9990 -0.0128
vn -0.0112 0.9994 -0.0324
vn 0.0772 0.9970 0.0107
vn 0.0477 0.9988 -0.0051
vn -0.0756 0.9971 -0.0065
vn -0.0594 0.9982 0.0045
vn -0.0166 0.9999 -0.0029
vn -0.1315 0.9913 -0.0005
vn -0.1050 0.9943 0.0165
vn 0.0818 0.9966 0.0063
vn 0.0629 0.9974 0.0353
vn -0.1013 0.9944 -0.0304
vn -0.0728 0.9970 -0.0269
vn -0.0254 0.9993 0.0261
vn -0.0415 0.9990 0.0188
vn -0.0498 0.9987 -0.0119
vn 0.0349 0.9994 0.0061
vn -0.0059 0.9992 0.0389
vn -0.0674 0.9977 -0.0043
vn -0.0712 0.9963 -0.0480
vn 0.0627 0.9975 0.0311
vn 0.0775 0.9966 0.0271
vn -0.0689 0.9968 -0.0398
vn -0.0008 1.0000 0.0047
vn 0.1017 0.9948 -0.0067
vn 0.0546 0.9985 0.0014
vn -0.0606 0.9982 -0.0041
vn 0.0279 0.9990 0.0336
vn 0.1493 0.9885 0.0235
vn 0.0052 0.9994 -0.0357
vn -0.0554 0.9983 -0.0154
vn 0.0940 0.9950 0.0324
vn 0.0906 0.9958 -0.0149
vn 0.0047 0.9998 -0.0205
vn 0.0794 0.9968 0.0118
vn -0.1072 0.9941 0.0148
vn -0.1311 0.9913 -0.0108
vn -0.0540 0.9977 -0.0397
vn 0.0409 0.9991 0.0057
vn 0.0208 0.9993 0.0297
vn -0.1387 0.9903 -0.0121
vn 0.0017 0.9999 -0.0161
vn 0.0142 0.9996 0.0224
vn -0.0453 0.9987 -0.0248
vn 0.0188 0.9998 0.0039
vn 0.0394 0.9969 0.0682
vn 0.0082 0.9999 0.0106
vn -0.0206 0.9991 -0.0374
vn -0.0992 0.9950 -0.0058
vn 0.0099 0.9999 -0.0119
vn -0.0398 0.9991 0.0176
vn -0.0236 0.9993 0.0290
vn -0.0069 0.9999 -0.0135
vn -0.1856 0.9826 0.0070
vn -0.0379 0.9990 0.0240
vn 0.0461 0.9989 -0.0014
vn 0.0668 0.9977 -0.0112
vn 0.0094 0.9998 -0.0153
vn -0.0243 0.9992 -0.0325
vn 0.0817 0.9966 0.0136
vn 0.0809 0.9959 0.0394
vn -0.1182 0.9929 0.0141
vn 0.0526 0.9981 -0.0316
vn 0.0197 0.9993 -0.0323
vn 0.0286 0.9993 -0.0223
vn -0.0728 0.9971 0.0229
vn -0.3360 0.9396 0.0657
vn 0.0301 0.9994 -0.0168
vn -0.0343 0.9979 -0.0548
vt 0.909091 0.909091
vt 1.000000 0.818182
vt 1.000000 0.909091
vt 0.909091 0.727273
vt 0.909091 0.818182
vt 1.000000 0.636364
vt 1.000000 0.727273
vt 0.909091 0.636364
vt 1.000000 0.545455
vt 0.909091 0.545455
vt 1.000000 0.454546
vt 0.909091 0.454545
vt 1.000000 0.363636
vt 0.909091 0.272727
vt 0.909091 0.363636
vt -0.000000 1.000000
vt 0.090909 0.909091
vt 0.090909 1.000000
vt 0.181818 0.909091
vt 0.181818 1.000000
vt 0.272727 0.909091
vt 0.272727 1.000000
vt 0.363636 1.000000
vt 0.454545 0.909091
vt 0.454545 1.000000
vt 0.545455 0.909091
vt 0.545455 1.000000
vt 0.636364 1.000000
vt 0.727273 0.909091
vt 0.727273 1.000000
vt -0.000000 0.909091
vt 0.090909 0.818182
vt 0.272727 0.818182
vt 0.363636 0.818182
vt 0.363636 0.909091
vt 0.454545 0.818182
vt 0.636364 0.818182
vt 0.636364 0.909091
vt 0.727273 0.818182
vt 0.818182 0.909091
vt 0.818182 0.818182
vt 0.000000 0.727273
vt -0.000000 0.818182
vt 0.181818 0.727273
vt 0.181818 0.818182
vt 0.272727 0.727273
vt 0.454545 0.727273
vt 0.545455 0.727273
vt 0.545455 0.818182
vt 0.636364 0.727273
vt 0.727273 0.727273
vt 0.090909 0.636364
vt 0.090909 0.727273
vt 0.181818 0.636364
vt 0.363636 0.636364
vt 0.363636 0.727273
vt 0.454545 0.636364
vt 0.545455 0.636364
vt 0.636364 0.636364
vt 0.727273 0.636364
vt 0.818182 0.636364
vt 0.818182 0.727273
vt 0.000000 0.545455
vt 0.000000 0.636364
vt 0.181818 0.545455
vt 0.272727 0.545455
vt 0.272727 0.636364
vt 0.363636 0.545455
vt 0.454545 0.545455
vt 0.545455 0.545455
vt 0.636364 0.545455
vt 0.727273 0.545455
vt 0.818182 0.545455
vt 0.000000 0.454545
vt 0.090909 0.545455
vt 0.181818 0.454545
vt 0.363636 0.454545
vt 0.545455 0.454545
vt 0.636364 0.454545
vt 0.727273 0.454545
vt 0.000000 0.363636
vt 0.090909 0.454545
vt 0.181818 0.363636
vt 0.272727 0.363636
vt 0.272727 0.454545
vt 0.545455 0.363636
vt 0.636364 0.363636
vt 0.818182 0.363636
vt 0.818182 0.454545
vt 0.090909 0.272727
vt 0.090909 0.363636
vt 0.272727 0.272727
vt 0.363636 0.363636
vt 0.727273 0.272727
vt 0.727273 0.363636
vt 0.818182 0.272727
vt 0.000000 0.181818
vt 0.000000 0.272727
vt 0.090909 0.181818
vt 0.181818 0.272727
vt 0.272727 0.181818
vt 0.363636 0.272727
vt 0.090909 0.090909
vt 0.181818 0.090909
vt 0.181818 0.181818
vt 0.000000 -0.000000
vt 0.000000 0.090909
vt 1.000000 0.272727
vt 0.454545 0.454545
vt 0.636364 0.272727
vt 0.363636 0.181818
vt 0.090909 -0.000000
s 1
f 39/1/39 28/2/28 29/3/29
f 59/4/59 28/2/28 49/5/49
f 59/4/59 26/6/26 27/7/27
f 69/8/69 25/9/25 26/6/26
f 79/10/79 24/11/24 25/9/25
f 89/12/89 23/13/23 24/11/24
f 106/14/106 23/13/23 98/15/98
f 1/16/1 30/17/30 10/18/10
f 10/18/10 31/19/31 9/20/9
f 9/20/9 32/21/32 8/22/8
f 32/21/32 7/23/7 8/22/8
f 7/23/7 34/24/34 6/25/6
f 6/25/6 35/26/35 5/27/5
f 35/26/35 4/28/4 5/27/5
f 4/28/4 37/29/37 3/30/3
f 11/31/11 40/32/40 30/17/30
f 40/32/40 31/19/31 30/17/30
f 31/19/31 42/33/42 32/21/32
f 32/21/32 43/34/43 33/35/33
f 33/35/33 44/36/44 34/24/34
f 44/36/44 35/26/35 34/24/34
f 35/26/35 46/37/46 36/38/36
f 36/38/36 47/39/47 37/29/37
f 47/39/47 38/40/38 37/29/37
f 48/41/48 39/1/39 38/40/38
f 13/42/13 40/32/40 12/43/12
f 40/32/40 51/44/51 41/45/41
f 51/44/51 42/33/42 41/45/41
f 52/46/52 43/34/43 42/33/42
f 43/34/43 54/47/54 44/36/44
f 44/36/44 55/48/55 45/49/45
f 45/49/45 56/50/56 46/37/46
f 56/50/56 47/39/47 46/37/46
f 57/51/57 48/41/48 47/39/47
f 48/41/48 59/4/59 49/5/49
f 13/42/13 60/52/60 50/53/50
f 50/53/50 61/54/61 51/44/51
f 61/54/61 52/46/52 51/44/51
f 52/46/52 63/55/63 53/56/53
f 53/56/53 64/57/64 54/47/54
f 54/47/54 65/58/65 55/48/55
f 55/48/55 66/59/66 56/50/56
f 56/50/56 67/60/67 57/51/57
f 57/51/57 68/61/68 58/62/58
f 68/61/68 59/4/59 58/62/58
f 15/63/15 60/52/60 14/64/14
f 60/52/60 71/65/71 61/54/61
f 61/54/61 72/66/72 62/67/62
f 62/67/62 73/68/73 63/55/63
f 63/55/63 74/69/74 64/57/64
f 64/57/64 75/70/75 65/58/65
f 65/58/65 76/71/76 66/59/66
f 66/59/66 77/72/77 67/60/67
f 77/72/77 68/61/68 67/60/67
f 78/73/78 69/8/69 68/61/68
f 16/74/16 70/75/70 15/63/15
f 70/75/70 81/76/81 71/65/71
f 81/76/81 72/66/72 71/65/71
f 72/66/72 83/77/83 73/68/73
f 83/77/83 74/69/74 73/68/73
f 74/69/74 85/78/85 75/70/75
f 75/70/75 86/79/86 76/71/76
f 86/79/86 77/72/77 76/71/76
f 87/80/87 78/73/78 77/72/77
f 78/73/78 89/12/89 79/10/79
f 17/81/17 80/82/80 16/74/16
f 80/82/80 91/83/91 81/76/81
f 81/76/81 92/84/92 82/85/82
f 92/84/92 83/77/83 82/85/82
f 94/86/94 86/79/86 85/78/85
f 95/87/95 87/80/87 86/79/86
f 87/80/87 97/88/97 88/89/88
f 97/88/97 89/12/89 88/89/88
f 17/81/17 99/90/99 90/91/90
f 99/90/99 91/83/91 90/91/90
f 91/83/91 101/92/101 92/84/92
f 101/92/101 93/93/93 92/84/92
f 95/87/95 104/94/104 96/95/96
f 96/95/96 105/96/105 97/88/97
f 105/96/105 98/15/98 97/88/97
f 19/97/19 99/90/99 18/98/18
f 107/99/107 100/100/100 99/90/99
f 100/100/100 109/101/109 101/92/101
f 109/101/109 102/102/102 101/92/101
f 19/97/19 112/103/111 107/99/107
f 107/99/107 113/104/112 108/105/108
f 2/106/2 112/103/111 20/107/20
f 39/1/39 49/5/49 28/2/28
f 59/4/59 27/7/27 28/2/28
f 59/4/59 69/8/69 26/6/26
f 69/8/69 79/10/79 25/9/25
f 79/10/79 89/12/89 24/11/24
f 89/12/89 98/15/98 23/13/23
f 106/14/106 22/108/22 23/13/23
f 1/16/1 11/31/11 30/17/30
f 10/18/10 30/17/30 31/19/31
f 9/20/9 31/19/31 32/21/32
f 32/21/32 33/35/33 7/23/7
f 7/23/7 33/35/33 34/24/34
f 6/25/6 34/24/34 35/26/35
f 35/26/35 36/38/36 4/28/4
f 4/28/4 36/38/36 37/29/37
f 11/31/11 12/43/12 40/32/40
f 40/32/40 41/45/41 31/19/31
f 31/19/31 41/45/41 42/33/42
f 32/21/32 42/33/42 43/34/43
f 33/35/33 43/34/43 44/36/44
f 44/36/44 45/49/45 35/26/35
f 35/26/35 45/49/45 46/37/46
f 36/38/36 46/37/46 47/39/47
f 47/39/47 48/41/48 38/40/38
f 48/41/48 49/5/49 39/1/39
f 13/42/13 50/53/50 40/32/40
f 40/32/40 50/53/50 51/44/51
f 51/44/51 52/46/52 42/33/42
f 52/46/52 53/56/53 43/34/43
f 43/34/43 53/56/53 54/47/54
f 44/36/44 54/47/54 55/48/55
f 45/49/45 55/48/55 56/50/56
f 56/50/56 57/51/57 47/39/47
f 57/51/57 58/62/58 48/41/48
f 48/41/48 58/62/58 59/4/59
f 13/42/13 14/64/14 60/52/60
f 50/53/50 60/52/60 61/54/61
f 61/54/61 62/67/62 52/46/52
f 52/46/52 62/67/62 63/55/63
f 53/56/53 63/55/63 64/57/64
f 54/47/54 64/57/64 65/58/65
f 55/48/55 65/58/65 66/59/66
f 56/50/56 66/59/66 67/60/67
f 57/51/57 67/60/67 68/61/68
f 68/61/68 69/8/69 59/4/59
f 15/63/15 70/75/70 60/52/60
f 60/52/60 70/75/70 71/65/71
f 61/54/61 71/65/71 72/66/72
f 62/67/62 72/66/72 73/68/73
f 63/55/63 73/68/73 74/69/74
f 64/57/64 74/69/74 75/70/75
f 65/58/65 75/70/75 76/71/76
f 66/59/66 76/71/76 77/72/77
f 77/72/77 78/73/78 68/61/68
f 78/73/78 79/10/79 69/8/69
f 16/74/16 80/82/80 70/75/70
f 70/75/70 80/82/80 81/76/81
f 81/76/81 82/85/82 72/66/72
f 72/66/72 82/85/82 83/77/83
f 83/77/83 84/109/84 74/69/74
f 74/69/74 84/109/84 85/78/85
f 75/70/75 85/78/85 86/79/86
f 86/79/86 87/80/87 77/72/77
f 87/80/87 88/89/88 78/73/78
f 78/73/78 88/89/88 89/12/89
f 17/81/17 90/91/90 80/82/80
f 80/82/80 90/91/90 91/83/91
f 81/76/81 91/83/91 92/84/92
f 92/84/92 93/93/93 83/77/83
f 94/86/94 95/87/95 86/79/86
f 95/87/95 96/95/96 87/80/87
f 87/80/87 96/95/96 97/88/97
f 97/88/97 98/15/98 89/12/89
f 17/81/17 18/98/18 99/90/99
f 99/90/99 100/100/100 91/83/91
f 91/83/91 100/100/100 101/92/101
f 101/92/101 102/102/102 93/93/93
f 95/87/95 103/110/103 104/94/104
f 96/95/96 104/94/104 105/96/105
f 105/96/105 106/14/106 98/15/98
f 19/97/19 107/99/107 99/90/99
f 107/99/107 108/105/108 100/100/100
f 100/100/100 108/105/108 109/101/109
f 109/101/109 110/111/110 102/102/102
f 19/97/19 20/107/20 112/103/111
f 107/99/107 112/103/111 113/104/112
f 2/106/2 21/112/21 112/103/111
l 111 105
